<?xml version="1.0" encoding="UTF-8" standalone="no"?>
<!-- Created with Inkscape (http://www.inkscape.org/) -->

<svg
   xmlns:dc="http://purl.org/dc/elements/1.1/"
   xmlns:cc="http://creativecommons.org/ns#"
   xmlns:rdf="http://www.w3.org/1999/02/22-rdf-syntax-ns#"
   xmlns:svg="http://www.w3.org/2000/svg"
   xmlns="http://www.w3.org/2000/svg"
   xmlns:sodipodi="http://sodipodi.sourceforge.net/DTD/sodipodi-0.dtd"
   xmlns:inkscape="http://www.inkscape.org/namespaces/inkscape"
   width="1000.09"
   height="511.35999"
   id="svg2"
   version="1.1"
   inkscape:version="0.48.4 r9939"
   sodipodi:docname="dibujo.svg">
  <defs
     id="defs4">
    <inkscape:path-effect
       effect="spiro"
       id="path-effect3674"
       is_visible="true" />
    <inkscape:path-effect
       effect="spiro"
       id="path-effect3670"
       is_visible="true" />
  </defs>
  <sodipodi:namedview
     id="base"
     pagecolor="#ffffff"
     bordercolor="#666666"
     borderopacity="1.0"
     inkscape:pageopacity="0.0"
     inkscape:pageshadow="2"
     inkscape:zoom="0.4643136"
     inkscape:cx="736.07364"
     inkscape:cy="143.61234"
     inkscape:document-units="px"
     inkscape:current-layer="layer1"
     showgrid="false"
     inkscape:snap-center="true"
     inkscape:window-width="1317"
     inkscape:window-height="750"
     inkscape:window-x="49"
     inkscape:window-y="18"
     inkscape:window-maximized="1" />
  <metadata
     id="metadata7">
    <rdf:RDF>
      <cc:Work
         rdf:about="">
        <dc:format>image/svg+xml</dc:format>
        <dc:type
           rdf:resource="http://purl.org/dc/dcmitype/StillImage" />
        <dc:title></dc:title>
      </cc:Work>
    </rdf:RDF>
  </metadata>
  <g
     inkscape:label="Capa 1"
     inkscape:groupmode="layer"
     id="layer1"
     transform="translate(0,-541.00186)">
    <path
       style="fill:none;stroke:#000000;stroke-width:0.75287908px;stroke-linecap:butt;stroke-linejoin:miter;stroke-opacity:1"
       d="m 510.30731,717.01535 121.61901,70.56285 167.22616,-88.54946 -11.40178,5.53434"
       id="path3672"
       inkscape:path-effect="#path-effect3674"
       inkscape:original-d="m 510.30731,717.01535 121.61901,70.56285 167.22616,-88.54946 -11.40178,5.53434"
       inkscape:connector-curvature="0" />
    <g
       id="g3373"
       transform="matrix(0.99950655,0.03141076,-0.03141076,0.99950655,-20.023345,650.68051)">
      <path
         inkscape:connector-curvature="0"
         id="path3326"
         d="m 268.5579,71.30373 -73.07698,63.94236"
         style="fill:none;stroke:#000000;stroke-width:1px;stroke-linecap:butt;stroke-linejoin:miter;stroke-opacity:1" />
      <path
         inkscape:connector-curvature="0"
         id="path3328"
         d="m 195.48092,135.24609 -62.11543,76.73083 0,0"
         style="fill:none;stroke:#000000;stroke-width:1px;stroke-linecap:butt;stroke-linejoin:miter;stroke-opacity:1" />
      <path
         inkscape:connector-curvature="0"
         id="path3330"
         d="m 133.36549,211.97692 -34.711569,82.2116"
         style="fill:none;stroke:#000000;stroke-width:1px;stroke-linecap:butt;stroke-linejoin:miter;stroke-opacity:1" />
      <path
         inkscape:connector-curvature="0"
         id="path3332"
         d="m 133.36549,211.97692 9.13462,85.86545 0,0"
         style="fill:none;stroke:#000000;stroke-width:1px;stroke-linecap:butt;stroke-linejoin:miter;stroke-opacity:1" />
      <path
         inkscape:connector-curvature="0"
         id="path3334"
         d="m 195.48092,135.24609 29.23079,74.9039 0,0"
         style="fill:none;stroke:#000000;stroke-width:1px;stroke-linecap:butt;stroke-linejoin:miter;stroke-opacity:1" />
      <path
         inkscape:connector-curvature="0"
         id="path3336"
         d="M 224.71171,210.14999 193.654,297.84237"
         style="fill:none;stroke:#000000;stroke-width:1px;stroke-linecap:butt;stroke-linejoin:miter;stroke-opacity:1" />
      <path
         inkscape:connector-curvature="0"
         id="path3338"
         d="m 224.71171,210.14999 14.6154,87.69238"
         style="fill:none;stroke:#000000;stroke-width:1px;stroke-linecap:butt;stroke-linejoin:miter;stroke-opacity:1" />
      <path
         inkscape:connector-curvature="0"
         id="path3340"
         d="m 268.5579,71.30373 73.07698,65.76928 0,0 0,0"
         style="fill:none;stroke:#000000;stroke-width:1px;stroke-linecap:butt;stroke-linejoin:miter;stroke-opacity:1" />
      <path
         inkscape:connector-curvature="0"
         id="path3342"
         d="m 341.63488,137.07301 -34.71157,76.73083"
         style="fill:none;stroke:#000000;stroke-width:1px;stroke-linecap:butt;stroke-linejoin:miter;stroke-opacity:1" />
      <path
         inkscape:connector-curvature="0"
         id="path3344"
         d="m 306.92331,213.80384 -20.09617,78.55775 0,0"
         style="fill:none;stroke:#000000;stroke-width:1px;stroke-linecap:butt;stroke-linejoin:miter;stroke-opacity:1" />
      <path
         inkscape:connector-curvature="0"
         id="path3346"
         d="m 341.63488,137.07301 56.63466,73.99044 0,0"
         style="fill:none;stroke:#000000;stroke-width:1px;stroke-linecap:butt;stroke-linejoin:miter;stroke-opacity:1" />
      <path
         inkscape:connector-curvature="0"
         id="path3348"
         d="m 398.26954,211.06345 -7.3077,83.12507 0,0 0,0"
         style="fill:none;stroke:#000000;stroke-width:1px;stroke-linecap:butt;stroke-linejoin:miter;stroke-opacity:1" />
      <path
         inkscape:connector-curvature="0"
         id="path3352"
         d="m 398.26954,211.06345 40.19234,77.6443"
         style="fill:none;stroke:#000000;stroke-width:1px;stroke-linecap:butt;stroke-linejoin:miter;stroke-opacity:1" />
      <path
         inkscape:connector-curvature="0"
         id="path3354"
         d="m 306.92331,213.80384 34.71157,82.21161"
         style="fill:none;stroke:#000000;stroke-width:1px;stroke-linecap:butt;stroke-linejoin:miter;stroke-opacity:1" />
      <g
         id="g3356">
        <path
           sodipodi:type="arc"
           style="fill:#c8b7b7;fill-rule:evenodd;stroke:#000000;stroke-width:1px;stroke-linecap:butt;stroke-linejoin:miter;stroke-opacity:1"
           id="path3081"
           sodipodi:cx="275.8656"
           sodipodi:cy="75.87104"
           sodipodi:rx="20.096169"
           sodipodi:ry="21.009632"
           d="m 295.96177,75.87104 c 0,11.6033 -8.99736,21.009632 -20.09617,21.009632 -11.09881,0 -20.09617,-9.406332 -20.09617,-21.009632 0,-11.603299 8.99736,-21.009632 20.09617,-21.009632 11.09881,0 20.09617,9.406333 20.09617,21.009632 z"
           transform="translate(122.40394,135.19241)" />
        <path
           transform="translate(-133.36549,221.97133)"
           sodipodi:type="arc"
           style="fill:#c8b7b7;fill-rule:evenodd;stroke:#000000;stroke-width:1px;stroke-linecap:butt;stroke-linejoin:miter;stroke-opacity:1"
           id="path3081-3"
           sodipodi:cx="275.8656"
           sodipodi:cy="75.87104"
           sodipodi:rx="20.096169"
           sodipodi:ry="21.009632"
           d="m 295.96177,75.87104 c 0,11.6033 -8.99736,21.009632 -20.09617,21.009632 -11.09881,0 -20.09617,-9.406332 -20.09617,-21.009632 0,-11.603299 8.99736,-21.009632 20.09617,-21.009632 11.09881,0 20.09617,9.406333 20.09617,21.009632 z" />
        <path
           transform="translate(-177.21168,218.31748)"
           sodipodi:type="arc"
           style="fill:#c8b7b7;fill-rule:evenodd;stroke:#000000;stroke-width:1px;stroke-linecap:butt;stroke-linejoin:miter;stroke-opacity:1"
           id="path3081-4"
           sodipodi:cx="275.8656"
           sodipodi:cy="75.87104"
           sodipodi:rx="20.096169"
           sodipodi:ry="21.009632"
           d="m 295.96177,75.87104 c 0,11.6033 -8.99736,21.009632 -20.09617,21.009632 -11.09881,0 -20.09617,-9.406332 -20.09617,-21.009632 0,-11.603299 8.99736,-21.009632 20.09617,-21.009632 11.09881,0 20.09617,9.406333 20.09617,21.009632 z" />
        <path
           transform="translate(-82.211605,221.97133)"
           sodipodi:type="arc"
           style="fill:#c8b7b7;fill-rule:evenodd;stroke:#000000;stroke-width:1px;stroke-linecap:butt;stroke-linejoin:miter;stroke-opacity:1"
           id="path3081-5"
           sodipodi:cx="275.8656"
           sodipodi:cy="75.87104"
           sodipodi:rx="20.096169"
           sodipodi:ry="21.009632"
           d="m 295.96177,75.87104 c 0,11.6033 -8.99736,21.009632 -20.09617,21.009632 -11.09881,0 -20.09617,-9.406332 -20.09617,-21.009632 0,-11.603299 8.99736,-21.009632 20.09617,-21.009632 11.09881,0 20.09617,9.406333 20.09617,21.009632 z" />
        <path
           transform="translate(-36.538492,221.97133)"
           sodipodi:type="arc"
           style="fill:#c8b7b7;fill-rule:evenodd;stroke:#000000;stroke-width:1px;stroke-linecap:butt;stroke-linejoin:miter;stroke-opacity:1"
           id="path3081-58"
           sodipodi:cx="275.8656"
           sodipodi:cy="75.87104"
           sodipodi:rx="20.096169"
           sodipodi:ry="21.009632"
           d="m 295.96177,75.87104 c 0,11.6033 -8.99736,21.009632 -20.09617,21.009632 -11.09881,0 -20.09617,-9.406332 -20.09617,-21.009632 0,-11.603299 8.99736,-21.009632 20.09617,-21.009632 11.09881,0 20.09617,9.406333 20.09617,21.009632 z" />
        <path
           transform="translate(10.961544,216.49055)"
           sodipodi:type="arc"
           style="fill:#c8b7b7;fill-rule:evenodd;stroke:#000000;stroke-width:1px;stroke-linecap:butt;stroke-linejoin:miter;stroke-opacity:1"
           id="path3081-0"
           sodipodi:cx="275.8656"
           sodipodi:cy="75.87104"
           sodipodi:rx="20.096169"
           sodipodi:ry="21.009632"
           d="m 295.96177,75.87104 c 0,11.6033 -8.99736,21.009632 -20.09617,21.009632 -11.09881,0 -20.09617,-9.406332 -20.09617,-21.009632 0,-11.603299 8.99736,-21.009632 20.09617,-21.009632 11.09881,0 20.09617,9.406333 20.09617,21.009632 z" />
        <path
           transform="translate(65.769279,220.14441)"
           sodipodi:type="arc"
           style="fill:#c8b7b7;fill-rule:evenodd;stroke:#000000;stroke-width:1px;stroke-linecap:butt;stroke-linejoin:miter;stroke-opacity:1"
           id="path3081-8"
           sodipodi:cx="275.8656"
           sodipodi:cy="75.87104"
           sodipodi:rx="20.096169"
           sodipodi:ry="21.009632"
           d="m 295.96177,75.87104 c 0,11.6033 -8.99736,21.009632 -20.09617,21.009632 -11.09881,0 -20.09617,-9.406332 -20.09617,-21.009632 0,-11.603299 8.99736,-21.009632 20.09617,-21.009632 11.09881,0 20.09617,9.406333 20.09617,21.009632 z" />
        <path
           transform="translate(115.09624,218.31748)"
           sodipodi:type="arc"
           style="fill:#c8b7b7;fill-rule:evenodd;stroke:#000000;stroke-width:1px;stroke-linecap:butt;stroke-linejoin:miter;stroke-opacity:1"
           id="path3081-6"
           sodipodi:cx="275.8656"
           sodipodi:cy="75.87104"
           sodipodi:rx="20.096169"
           sodipodi:ry="21.009632"
           d="m 295.96177,75.87104 c 0,11.6033 -8.99736,21.009632 -20.09617,21.009632 -11.09881,0 -20.09617,-9.406332 -20.09617,-21.009632 0,-11.603299 8.99736,-21.009632 20.09617,-21.009632 11.09881,0 20.09617,9.406333 20.09617,21.009632 z" />
        <path
           transform="matrix(1,0,0,-1,162.59628,364.57879)"
           sodipodi:type="arc"
           style="fill:#c8b7b7;fill-rule:evenodd;stroke:#000000;stroke-width:1px;stroke-linecap:butt;stroke-linejoin:miter;stroke-opacity:1"
           id="path3081-06"
           sodipodi:cx="275.8656"
           sodipodi:cy="75.87104"
           sodipodi:rx="20.096169"
           sodipodi:ry="21.009632"
           d="m 295.96177,75.87104 c 0,11.6033 -8.99736,21.009632 -20.09617,21.009632 -11.09881,0 -20.09617,-9.406332 -20.09617,-21.009632 0,-11.603299 8.99736,-21.009632 20.09617,-21.009632 11.09881,0 20.09617,9.406333 20.09617,21.009632 z" />
        <path
           sodipodi:type="arc"
           style="fill:#c8b7b7;fill-rule:evenodd;stroke:#000000;stroke-width:1px;stroke-linecap:butt;stroke-linejoin:miter;stroke-opacity:1"
           id="path3081-2"
           sodipodi:cx="275.8656"
           sodipodi:cy="75.87104"
           sodipodi:rx="20.096169"
           sodipodi:ry="21.009632"
           d="m 295.96177,75.87104 c 0,11.6033 -8.99736,21.009632 -20.09617,21.009632 -11.09881,0 -20.09617,-9.406332 -20.09617,-21.009632 0,-11.603299 8.99736,-21.009632 20.09617,-21.009632 11.09881,0 20.09617,9.406333 20.09617,21.009632 z"
           transform="translate(31.057714,137.9328)" />
        <path
           sodipodi:type="arc"
           style="fill:#c8b7b7;fill-rule:evenodd;stroke:#000000;stroke-width:1px;stroke-linecap:butt;stroke-linejoin:miter;stroke-opacity:1"
           id="path3081-05"
           sodipodi:cx="275.8656"
           sodipodi:cy="75.87104"
           sodipodi:rx="20.096169"
           sodipodi:ry="21.009632"
           d="m 295.96177,75.87104 c 0,11.6033 -8.99736,21.009632 -20.09617,21.009632 -11.09881,0 -20.09617,-9.406332 -20.09617,-21.009632 0,-11.603299 8.99736,-21.009632 20.09617,-21.009632 11.09881,0 20.09617,9.406333 20.09617,21.009632 z"
           transform="translate(-51.153888,134.27895)" />
        <path
           sodipodi:type="arc"
           style="fill:#c8b7b7;fill-rule:evenodd;stroke:#000000;stroke-width:1px;stroke-linecap:butt;stroke-linejoin:miter;stroke-opacity:1"
           id="path3081-582"
           sodipodi:cx="275.8656"
           sodipodi:cy="75.87104"
           sodipodi:rx="20.096169"
           sodipodi:ry="21.009632"
           d="m 295.96177,75.87104 c 0,11.6033 -8.99736,21.009632 -20.09617,21.009632 -11.09881,0 -20.09617,-9.406332 -20.09617,-21.009632 0,-11.603299 8.99736,-21.009632 20.09617,-21.009632 11.09881,0 20.09617,9.406333 20.09617,21.009632 z"
           transform="translate(-142.50011,136.10588)" />
        <path
           sodipodi:type="arc"
           style="fill:#c8b7b7;fill-rule:evenodd;stroke:#000000;stroke-width:1px;stroke-linecap:butt;stroke-linejoin:miter;stroke-opacity:1"
           id="path3081-09"
           sodipodi:cx="275.8656"
           sodipodi:cy="75.87104"
           sodipodi:rx="20.096169"
           sodipodi:ry="21.009632"
           d="m 295.96177,75.87104 c 0,11.6033 -8.99736,21.009632 -20.09617,21.009632 -11.09881,0 -20.09617,-9.406332 -20.09617,-21.009632 0,-11.603299 8.99736,-21.009632 20.09617,-21.009632 11.09881,0 20.09617,9.406333 20.09617,21.009632 z"
           transform="translate(-7.307697,-4.5673104)" />
        <path
           sodipodi:type="arc"
           style="fill:#c8b7b7;fill-rule:evenodd;stroke:#000000;stroke-width:1px;stroke-linecap:butt;stroke-linejoin:miter;stroke-opacity:1"
           id="path3081-1"
           sodipodi:cx="275.8656"
           sodipodi:cy="75.87104"
           sodipodi:rx="20.096169"
           sodipodi:ry="21.009632"
           d="m 295.96177,75.87104 c 0,11.6033 -8.99736,21.009632 -20.09617,21.009632 -11.09881,0 -20.09617,-9.406332 -20.09617,-21.009632 0,-11.603299 8.99736,-21.009632 20.09617,-21.009632 11.09881,0 20.09617,9.406333 20.09617,21.009632 z"
           transform="translate(-80.384677,59.375047)" />
        <path
           sodipodi:type="arc"
           style="fill:#c8b7b7;fill-rule:evenodd;stroke:#000000;stroke-width:1px;stroke-linecap:butt;stroke-linejoin:miter;stroke-opacity:1"
           id="path3081-54"
           sodipodi:cx="275.8656"
           sodipodi:cy="75.87104"
           sodipodi:rx="20.096169"
           sodipodi:ry="21.009632"
           d="m 295.96177,75.87104 c 0,11.6033 -8.99736,21.009632 -20.09617,21.009632 -11.09881,0 -20.09617,-9.406332 -20.09617,-21.009632 0,-11.603299 8.99736,-21.009632 20.09617,-21.009632 11.09881,0 20.09617,9.406333 20.09617,21.009632 z"
           transform="translate(65.769283,61.201971)" />
      </g>
    </g>
    <rect
       style="opacity:0;fill:#c8b7b7"
       id="rect3553"
       width="101.22469"
       height="58.150352"
       x="381.20786"
       y="82.770348"
       transform="translate(0,541.00186)" />
    <rect
       style="opacity:0;fill:#c8b7b7"
       id="rect3557"
       width="146.45274"
       height="45.228054"
       x="383.36157"
       y="72.001762"
       transform="translate(0,541.00186)" />
    <rect
       style="opacity:0;fill:#c8b7b7"
       id="rect3559"
       width="161.52876"
       height="60.30407"
       x="564.2738"
       y="72.001762"
       transform="translate(0,541.00186)" />
    <path
       style="fill:#c8b7b7;stroke:#000000;stroke-width:1px;stroke-linecap:butt;stroke-linejoin:miter;stroke-opacity:1"
       d="m 430.74337,82.770348 179.98911,-1.383479 0,0"
       id="path3612"
       inkscape:connector-curvature="0"
       transform="translate(0,541.00186)" />
    <path
       style="fill:#c8b7b7;stroke:#000000;stroke-width:1px;stroke-linecap:butt;stroke-linejoin:miter;stroke-opacity:1"
       d="m 610.73248,81.386869 188.29638,1.383545"
       id="path3616"
       inkscape:connector-curvature="0"
       transform="translate(0,541.00186)" />
    <rect
       style="fill:#c8b7b7;fill-rule:evenodd;stroke:#000000;stroke-width:1px;stroke-linecap:butt;stroke-linejoin:miter;stroke-opacity:1"
       id="rect3567"
       width="155.06761"
       height="51.689201"
       x="353.20956"
       y="56.925747"
       transform="translate(0,541.00186)" />
    <rect
       style="fill:#c8b7b7;fill-rule:evenodd;stroke:#000000;stroke-width:1px;stroke-linecap:butt;stroke-linejoin:miter;stroke-opacity:1"
       id="rect3567-92"
       width="155.06761"
       height="51.689201"
       x="533.19867"
       y="596.54413" />
    <rect
       style="fill:#c8b7b7;fill-rule:evenodd;stroke:#000000;stroke-width:1px;stroke-linecap:butt;stroke-linejoin:miter;stroke-opacity:1"
       id="rect3567-93"
       width="155.06761"
       height="51.689201"
       x="721.49506"
       y="597.92767" />
    <rect
       style="fill:#c8b7b7;fill-rule:evenodd;stroke:#000000;stroke-width:1px;stroke-linecap:butt;stroke-linejoin:miter;stroke-opacity:1"
       id="rect3618"
       width="204.60309"
       height="49.535484"
       x="549.19775"
       y="311.06433"
       transform="translate(0,541.00186)" />
    <rect
       style="fill:#c8b7b7;fill-rule:evenodd;stroke:#000000;stroke-width:1px;stroke-linecap:butt;stroke-linejoin:miter;stroke-opacity:1"
       id="rect3618-7"
       width="204.60309"
       height="49.535484"
       x="548.12091"
       y="788.53149" />
    <rect
       style="fill:#c8b7b7;fill-rule:evenodd;stroke:#000000;stroke-width:1px;stroke-linecap:butt;stroke-linejoin:miter;stroke-opacity:1"
       id="rect3618-71"
       width="204.60309"
       height="49.535484"
       x="548.12097"
       y="917.75452" />
    <path
       style="opacity:0;fill:#c8b7b7"
       id="path3654"
       d="m 869.05845,270.13486 c -1.51158,13.50649 3.20326,26.44465 8.38447,38.6938 5.08953,12.03243 9.71481,20.65119 15.65824,32.41121 12.86715,24.83508 24.42318,50.39689 38.83423,74.40332 1.09893,1.2202 2.19786,2.44039 3.2968,3.66058 0,0 -26.50193,15.78496 -26.50193,15.78496 l 0,0 c -0.99455,-1.47999 -1.9891,-2.95998 -2.98364,-4.43997 -11.98569,-25.35259 -22.60861,-51.37308 -35.98263,-76.06125 -5.2218,-9.60482 -12.12629,-22.01499 -16.95233,-31.96108 -5.82287,-12.00049 -11.42363,-24.64657 -11.81899,-38.19134 0,0 28.06578,-14.30023 28.06578,-14.30023 z"
       inkscape:connector-curvature="0"
       transform="translate(0,541.00186)" />
    <path
       style="opacity:0;fill:#c8b7b7"
       id="path3656"
       d="m 904.62456,431.08753 c -13.54919,-9.15894 -21.77101,-23.51004 -29.75414,-37.34569 -6.8677,-11.90248 -13.45538,-23.96439 -20.21042,-35.93117 -12.64047,-21.60145 -25.40822,-43.16936 -41.90666,-62.07957 -6.31317,-6.98797 -13.26495,-13.24191 -18.31197,-21.24886 -6.83477,-11.81191 -6.35968,-16.307 -0.0742,-28.50474 4.24582,-6.58963 9.37141,-13.01723 16.39664,-16.83401 31.88918,-17.32525 19.74356,-16.28179 36.94672,-16.57701 11.90405,1.92476 21.62379,8.83784 28.7998,18.40224 1.79242,2.389 3.23755,5.01982 4.85633,7.52972 7.18973,13.83367 12.7727,28.44613 16.01319,43.6968 1.67673,8.53475 1.79792,17.22064 1.88731,25.88066 -0.14274,8.48923 -0.16786,16.97946 -0.20258,25.46976 -0.28645,6.81936 -0.87178,13.62972 -2.10468,20.3442 -0.83366,4.23291 -1.51904,8.48793 -1.73623,12.79883 1.21364,4.24556 6.71709,7.65418 9.93945,10.54053 6.10762,5.58763 12.09212,11.18961 18.92796,15.89297 3.6366,1.87065 7.79112,4.65293 12.04935,4.8921 0.82806,0.0465 1.64064,-0.2443 2.46095,-0.36646 0,0 -25.51475,18.52954 -25.51475,18.52954 l 0,0 c -5.57172,-0.70941 -10.63558,-3.16205 -15.24378,-6.35152 -6.7836,-4.93151 -12.94647,-10.48524 -19.15595,-16.10649 -4.40928,-3.67629 -10.15886,-7.03232 -11.91066,-12.77737 0.37658,-4.47656 0.75349,-8.93476 1.86431,-13.30717 1.37841,-6.59555 2.2086,-13.26142 2.71405,-19.98382 0.0314,-8.46563 0.12973,-16.93075 0.0857,-25.39642 0.0872,-8.54835 0.047,-17.13234 -1.13563,-25.61627 -2.53026,-15.07267 -7.17744,-29.68746 -14.67434,-43.07655 -1.585,-2.34851 -2.98617,-4.83218 -4.75501,-7.04554 -7.01963,-8.78374 -16.54843,-15.00036 -27.91651,-15.68212 -13.87179,1.8915 -5.92047,1.53303 16.52809,-12.80207 1.49582,-0.9552 -3.17155,1.61071 -4.65341,2.58744 -5.09295,3.35685 -9.2043,7.80924 -12.55942,12.87393 -2.57481,4.31134 -5.75983,9.14451 -5.46361,14.474 0.21292,3.8309 2.99,7.49238 4.43808,10.86959 5.07214,7.75557 12.00035,13.87735 17.50668,21.31382 15.33604,19.97251 26.19406,42.75944 38.6981,64.51054 5.42656,9.33754 15.063,26.14327 20.93105,35.37469 8.40999,13.23029 17.63923,27.15278 32.65846,33.4459 0,0 -26.4183,17.60559 -26.4183,17.60559 z"
       inkscape:connector-curvature="0"
       transform="translate(0,541.00186)" />
    <path
       style="opacity:0;fill:#c8b7b7"
       id="path3658"
       d="m 920.8829,414.05199 c -0.89274,0.25655 -1.76725,0.58814 -2.67821,0.76964 -7.83244,1.56056 -16.10639,2.00206 -24.03645,2.54586 -2.57437,0.17654 -27.87161,1.59734 -29.30377,1.67826 -17.94836,0.77034 -35.89853,1.4864 -53.84576,2.28295 0,0 22.16167,-16.22594 22.16167,-16.22594 l 0,0 c 18.02088,-0.51949 36.04416,-1.09399 54.02239,-2.51793 19.57385,-1.53046 40.04811,-1.80371 58.76428,-8.25804 0,0 -25.08415,19.7252 -25.08415,19.7252 z"
       inkscape:connector-curvature="0"
       transform="translate(0,541.00186)" />
  </g>
</svg>
